<svg width="26" height="26" viewBox="0 0 26 26" fill="none" xmlns="http://www.w3.org/2000/svg">
<path d="M13.0001 8.83429C10.7063 8.83429 8.83446 10.7062 8.83446 12.9999C8.83446 15.2937 10.7063 17.1655 13.0001 17.1655C15.2938 17.1655 17.1657 15.2937 17.1657 12.9999C17.1657 10.7062 15.2938 8.83429 13.0001 8.83429ZM25.4938 12.9999C25.4938 11.2749 25.5095 9.56554 25.4126 7.84366C25.3157 5.84366 24.8595 4.06867 23.397 2.60617C21.9313 1.14054 20.1595 0.687416 18.1595 0.590541C16.4345 0.493666 14.7251 0.509291 13.0032 0.509291C11.2782 0.509291 9.56884 0.493666 7.84696 0.590541C5.84696 0.687416 4.07196 1.14367 2.60946 2.60617C1.14384 4.07179 0.690712 5.84366 0.593837 7.84366C0.496962 9.56866 0.512587 11.278 0.512587 12.9999C0.512587 14.7218 0.496962 16.4343 0.593837 18.1562C0.690712 20.1562 1.14696 21.9312 2.60946 23.3937C4.07509 24.8593 5.84696 25.3124 7.84696 25.4093C9.57196 25.5062 11.2813 25.4905 13.0032 25.4905C14.7282 25.4905 16.4376 25.5062 18.1595 25.4093C20.1595 25.3124 21.9345 24.8562 23.397 23.3937C24.8626 21.928 25.3157 20.1562 25.4126 18.1562C25.5126 16.4343 25.4938 14.7249 25.4938 12.9999ZM13.0001 19.4093C9.45321 19.4093 6.59071 16.5468 6.59071 12.9999C6.59071 9.45304 9.45321 6.59054 13.0001 6.59054C16.547 6.59054 19.4095 9.45304 19.4095 12.9999C19.4095 16.5468 16.547 19.4093 13.0001 19.4093ZM19.672 7.82491C18.8438 7.82491 18.1751 7.15616 18.1751 6.32804C18.1751 5.49992 18.8438 4.83117 19.672 4.83117C20.5001 4.83117 21.1688 5.49992 21.1688 6.32804C21.1691 6.52468 21.1305 6.71944 21.0554 6.90116C20.9803 7.08288 20.87 7.24799 20.731 7.38704C20.5919 7.52609 20.4268 7.63634 20.2451 7.71147C20.0634 7.78661 19.8686 7.82516 19.672 7.82491Z" fill="#969899"/>
</svg>
