<svg width="37" height="28" viewBox="0 0 37 28" fill="none" xmlns="http://www.w3.org/2000/svg">
<path d="M1.85111 27.7406H35.1521C35.4892 27.7395 35.8197 27.6464 36.1079 27.4712C36.3962 27.2961 36.6313 27.0455 36.7879 26.7465C36.9445 26.4475 37.0167 26.1114 36.9967 25.7744C36.9768 25.4373 36.8654 25.1121 36.6747 24.8337L20.0242 0.748944C19.3341 -0.249648 17.6728 -0.249648 16.9808 0.748944L0.330371 24.8337C0.137641 25.1115 0.0246203 25.4369 0.00358711 25.7745C-0.0174461 26.1121 0.0543131 26.449 0.211068 26.7487C0.367823 27.0483 0.603579 27.2992 0.89272 27.4741C1.18186 27.6489 1.51333 27.7411 1.85111 27.7406Z" fill="#E8E8E8"/>
</svg>
