<svg width="212" height="75" viewBox="0 0 212 75" fill="none" xmlns="http://www.w3.org/2000/svg">
<path d="M23.61 56.53H22.42C22.42 56.6433 22.3917 56.8417 22.335 57.125C22.335 57.465 22.3067 57.8333 22.25 58.23C22.1933 58.6267 22.1367 58.995 22.08 59.335C22.08 59.7317 22.08 60.015 22.08 60.185C22.0233 60.2983 21.9667 60.4683 21.91 60.695C21.8533 60.9783 21.7967 61.2617 21.74 61.545C21.6833 61.8283 21.6267 62.14 21.57 62.48H21.145C21.0883 62.1967 21.0317 61.9417 20.975 61.715C20.9183 61.4883 20.8333 61.2617 20.72 61.035C20.6633 60.865 20.6067 60.7233 20.55 60.61C20.55 60.44 20.5217 60.1283 20.465 59.675C20.4083 59.2783 20.3517 58.825 20.295 58.315C20.295 57.8617 20.2667 57.4083 20.21 56.955C20.1533 56.5017 20.125 56.19 20.125 56.02L19.785 55.595C19.5583 55.4817 19.1333 55.2833 18.51 55C17.9433 54.7167 17.6033 54.575 17.49 54.575C17.2067 54.5183 16.6967 54.32 15.96 53.98C15.28 53.64 14.855 53.4133 14.685 53.3C14.6283 53.2433 14.4583 53.13 14.175 52.96C13.9483 52.79 13.6933 52.62 13.41 52.45C13.1267 52.2233 12.8433 52.025 12.56 51.855C12.2767 51.685 12.0783 51.5433 11.965 51.43C11.795 51.3167 11.455 51.09 10.945 50.75C10.435 50.3533 10.1517 50.0983 10.095 49.985C9.98167 49.8717 9.755 49.6733 9.415 49.39C9.13167 49.05 8.82 48.7383 8.48 48.455C8.14 48.115 7.8 47.8033 7.46 47.52C7.17667 47.18 6.95 46.9533 6.78 46.84C6.66667 46.7267 6.41167 46.3583 6.015 45.735C5.61833 45.1117 5.30667 44.715 5.08 44.545C4.96667 44.4317 4.76833 44.205 4.485 43.865C4.20167 43.4683 4.06 43.2133 4.06 43.1C3.94667 42.93 3.77667 42.6183 3.55 42.165C3.38 41.7117 3.15333 41.2583 2.87 40.805C2.64333 40.295 2.41667 39.8417 2.19 39.445C1.96333 38.9917 1.82167 38.68 1.765 38.51C1.70833 38.4533 1.62333 38.255 1.51 37.915C1.45333 37.575 1.36833 37.3483 1.255 37.235C1.255 37.1217 1.22667 36.9517 1.17 36.725C1.17 36.4417 1.14167 36.1583 1.085 35.875C1.02833 35.5917 0.971667 35.28 0.915 34.94V33.07V31.115C0.915 31.0017 0.971667 30.7183 1.085 30.265C1.19833 29.755 1.255 29.4433 1.255 29.33C1.36833 29.16 1.595 28.735 1.935 28.055C2.33167 27.3183 2.615 26.8083 2.785 26.525C2.785 26.4117 2.89833 26.185 3.125 25.845C3.40833 25.505 3.55 25.2783 3.55 25.165C3.77667 24.9383 4.23 24.485 4.91 23.805C5.59 23.125 6.07167 22.6717 6.355 22.445C6.46833 22.3883 6.695 22.2467 7.035 22.02C7.43167 21.7933 7.68667 21.6517 7.8 21.595C7.91333 21.4817 8.11167 21.34 8.395 21.17C8.67833 21 8.96167 20.8583 9.245 20.745C9.52833 20.575 9.78333 20.4333 10.01 20.32C10.2367 20.2067 10.3783 20.15 10.435 20.15C10.6617 20.0933 11.0017 20.0083 11.455 19.895C11.965 19.725 12.2767 19.64 12.39 19.64H14.685H16.98C17.0367 19.64 17.32 19.725 17.83 19.895C18.34 20.0083 18.68 20.0933 18.85 20.15C18.9633 20.2067 19.1617 20.2917 19.445 20.405C19.7283 20.4617 20.0117 20.5467 20.295 20.66C20.5783 20.7167 20.8333 20.7733 21.06 20.83C21.3433 20.8867 21.5133 20.915 21.57 20.915C21.74 21.0283 22.0517 21.1983 22.505 21.425C22.9583 21.6517 23.27 21.8217 23.44 21.935C23.6667 22.1617 24.12 22.5017 24.8 22.955C25.48 23.3517 25.9333 23.6633 26.16 23.89C26.2167 23.9467 26.585 24.2583 27.265 24.825C28.0017 25.3917 28.5683 25.845 28.965 26.185L29.305 26.525C29.5317 26.7517 29.815 27.12 30.155 27.63C30.5517 28.0833 30.75 28.3667 30.75 28.48C30.75 28.5933 30.7783 28.735 30.835 28.905C30.9483 29.075 31.0617 29.245 31.175 29.415C31.2883 29.6417 31.43 29.8683 31.6 30.095V30.86V31.625C31.6 31.7383 31.4583 32.05 31.175 32.56C30.9483 33.0133 30.8067 33.2967 30.75 33.41C30.6933 33.5233 30.5517 33.6933 30.325 33.92C30.0983 34.1467 29.8433 34.4017 29.56 34.685C29.3333 34.9117 29.1067 35.1383 28.88 35.365C28.6533 35.535 28.5117 35.6483 28.455 35.705C28.3417 35.8183 28.0583 35.9883 27.605 36.215C27.1517 36.385 26.84 36.5267 26.67 36.64H26.16H25.735C25.5083 36.64 25.225 36.5833 24.885 36.47C24.6583 36.4133 24.4883 36.3283 24.375 36.215C24.1483 36.1583 23.9217 36.0167 23.695 35.79C23.525 35.5633 23.44 35.4217 23.44 35.365C23.3267 35.1383 23.27 34.8267 23.27 34.43C23.27 33.9767 23.3267 33.6367 23.44 33.41C23.3267 33.3533 23.1283 33.2117 22.845 32.985C22.6183 32.7017 22.3633 32.4183 22.08 32.135C21.7967 31.795 21.5133 31.5117 21.23 31.285C20.9467 31.0583 20.72 30.8883 20.55 30.775C20.4367 30.6617 20.04 30.3783 19.36 29.925C18.68 29.415 18.17 29.0467 17.83 28.82C17.66 28.7067 17.3483 28.5367 16.895 28.31C16.4417 28.0833 16.13 27.9133 15.96 27.8H15.79H15.535C15.535 28.14 15.4783 28.6783 15.365 29.415C15.2517 30.095 15.195 30.5483 15.195 30.775C15.0817 30.8317 14.9967 30.8883 14.94 30.945C14.8833 31.0017 14.8267 31.03 14.77 31.03C14.7133 31.03 14.685 31.0583 14.685 31.115L14.43 31.285C14.3167 31.285 14.26 31.2567 14.26 31.2V31.115C14.1467 31.115 14.0333 30.9733 13.92 30.69C13.8633 30.4067 13.7783 30.2083 13.665 30.095C13.665 30.0383 13.6367 29.8683 13.58 29.585C13.5233 29.245 13.4667 28.905 13.41 28.565C13.41 28.225 13.3817 27.9133 13.325 27.63C13.2683 27.3467 13.24 27.1483 13.24 27.035C13.07 26.9783 12.6167 26.8933 11.88 26.78C11.2 26.61 10.7183 26.525 10.435 26.525H10.18H10.095C9.98167 26.525 9.67 26.61 9.16 26.78C8.70667 26.8933 8.36667 26.9783 8.14 27.035V28.99V31.115C8.14 31.3417 8.19667 31.6817 8.31 32.135C8.48 32.5317 8.59333 32.8433 8.65 33.07L10.945 37.66C11.0583 37.7167 11.2283 37.915 11.455 38.255C11.6817 38.595 11.8517 38.8217 11.965 38.935C12.1917 39.2183 12.56 39.6433 13.07 40.21C13.6367 40.72 14.2033 41.2867 14.77 41.91C15.3933 42.4767 15.96 43.015 16.47 43.525C16.98 44.035 17.32 44.375 17.49 44.545C17.5467 44.545 17.6883 44.63 17.915 44.8C18.1417 44.97 18.3967 45.1683 18.68 45.395C18.9633 45.6217 19.2467 45.8483 19.53 46.075C19.8133 46.245 20.0117 46.3583 20.125 46.415C20.3517 46.5283 20.805 46.755 21.485 47.095C22.165 47.435 22.6183 47.6333 22.845 47.69C23.015 47.69 23.27 47.775 23.61 47.945C24.0067 48.0583 24.2617 48.115 24.375 48.115H25.14V47.69C25.14 47.6333 25.055 47.4917 24.885 47.265C24.7717 47.0383 24.715 46.8967 24.715 46.84V45.82V44.885C24.715 44.7717 24.7717 44.545 24.885 44.205C25.055 43.865 25.14 43.6383 25.14 43.525C25.1967 43.4683 25.3667 43.3267 25.65 43.1C25.9333 42.8167 26.2167 42.5333 26.5 42.25C26.7833 41.9667 27.0667 41.6833 27.35 41.4C27.6333 41.1167 27.86 40.9183 28.03 40.805C28.1433 40.7483 28.285 40.6917 28.455 40.635C28.6817 40.5217 28.8517 40.4083 28.965 40.295H29.73H30.75C30.8067 40.295 30.8633 40.38 30.92 40.55C31.0333 40.6633 31.1467 40.7483 31.26 40.805C31.3167 40.9183 31.43 41.145 31.6 41.485C31.77 41.825 31.94 42.1933 32.11 42.59C32.3367 42.9867 32.535 43.3833 32.705 43.78C32.875 44.12 32.9883 44.375 33.045 44.545C33.1017 44.6017 33.1867 44.8 33.3 45.14C33.47 45.48 33.555 45.7067 33.555 45.82V47.605V49.135C33.555 49.1917 33.47 49.39 33.3 49.73C33.1867 50.07 33.1017 50.2967 33.045 50.41C33.045 50.5233 33.0167 50.6367 32.96 50.75C32.9033 50.8067 32.8467 50.8917 32.79 51.005C32.7333 51.175 32.6767 51.3167 32.62 51.43C32.5067 51.4867 32.28 51.77 31.94 52.28C31.6 52.79 31.3733 53.13 31.26 53.3C31.1467 53.3 31.0333 53.385 30.92 53.555C30.8633 53.6683 30.8067 53.725 30.75 53.725C30.6367 53.895 30.325 54.15 29.815 54.49C29.3617 54.83 29.0783 55 28.965 55C28.8517 55.1133 28.6817 55.1983 28.455 55.255C28.285 55.3683 28.1433 55.4817 28.03 55.595C27.86 55.595 27.4917 55.7083 26.925 55.935C26.3583 56.2183 25.9617 56.4167 25.735 56.53C25.735 56.87 25.7067 57.4933 25.65 58.4C25.65 59.3067 25.6217 60.27 25.565 61.29C25.5083 62.31 25.4233 63.2733 25.31 64.18C25.2533 65.0867 25.1967 65.71 25.14 66.05C25.14 66.1633 25.0833 66.4467 24.97 66.9C24.9133 67.41 24.8283 67.7783 24.715 68.005L24.375 68.345L23.61 67.495V56.53ZM49.371 54.405C49.1443 54.405 48.691 54.2917 48.011 54.065C47.331 53.7817 46.8776 53.64 46.651 53.64C46.5376 53.5833 46.311 53.47 45.971 53.3C45.6876 53.13 45.3476 52.96 44.951 52.79C44.5543 52.5633 44.1576 52.365 43.761 52.195C43.421 52.025 43.1943 51.8833 43.081 51.77C42.911 51.6567 42.6276 51.4867 42.231 51.26C41.891 51.0333 41.6643 50.8633 41.551 50.75C41.381 50.6367 41.0976 50.3817 40.701 49.985C40.361 49.5883 39.9643 49.1633 39.511 48.71C39.1143 48.2567 38.7176 47.8317 38.321 47.435C37.9243 46.9817 37.641 46.67 37.471 46.5C37.4143 46.5 37.2726 46.3583 37.046 46.075C36.8193 45.735 36.6776 45.4517 36.621 45.225C36.5076 45.055 36.366 44.8 36.196 44.46C36.026 44.12 35.8276 43.78 35.601 43.44C35.431 43.0433 35.261 42.675 35.091 42.335C34.921 41.995 34.7793 41.74 34.666 41.57C34.666 41.4567 34.6093 41.23 34.496 40.89C34.3826 40.55 34.326 40.3517 34.326 40.295V36.81V33.75C34.326 33.6933 34.3543 33.5517 34.411 33.325C34.4676 33.0983 34.5243 32.8433 34.581 32.56C34.6943 32.2767 34.7793 31.9933 34.836 31.71C34.9493 31.4267 35.0626 31.2283 35.176 31.115C35.176 31.0017 35.2326 30.8317 35.346 30.605C35.516 30.3783 35.601 30.2083 35.601 30.095C35.6576 29.9817 35.771 29.7833 35.941 29.5C36.1676 29.16 36.3943 28.8483 36.621 28.565C36.8476 28.225 37.046 27.9417 37.216 27.715C37.386 27.4883 37.471 27.375 37.471 27.375C37.5276 27.3183 37.6693 27.1767 37.896 26.95C38.1793 26.6667 38.4626 26.3833 38.746 26.1C39.0293 25.76 39.3126 25.4483 39.596 25.165C39.8793 24.8817 40.0776 24.6833 40.191 24.57C40.361 24.4567 40.6726 24.23 41.126 23.89C41.5793 23.55 41.891 23.3233 42.061 23.21C42.231 23.0967 42.486 22.955 42.826 22.785C43.166 22.5583 43.5343 22.36 43.931 22.19C44.3276 21.9633 44.696 21.765 45.036 21.595C45.376 21.425 45.631 21.3117 45.801 21.255C45.971 21.255 46.2826 21.1983 46.736 21.085C47.1893 20.9717 47.501 20.915 47.671 20.915H50.391H53.196C53.3093 20.915 53.5643 20.9717 53.961 21.085C54.4143 21.1983 54.7543 21.255 54.981 21.255C55.0376 21.255 55.1793 21.34 55.406 21.51C55.6326 21.68 55.7743 21.8217 55.831 21.935C56.0576 21.9917 56.341 22.19 56.681 22.53C57.0776 22.87 57.276 23.0967 57.276 23.21C57.276 23.2667 57.3043 23.4083 57.361 23.635C57.4176 23.8617 57.446 24.1167 57.446 24.4C57.5026 24.6267 57.5593 24.8533 57.616 25.08C57.6726 25.3067 57.7293 25.4483 57.786 25.505C57.8426 25.6183 57.956 25.845 58.126 26.185C58.3526 26.4683 58.5793 26.8083 58.806 27.205C59.0893 27.545 59.3443 27.885 59.571 28.225C59.7976 28.5083 59.9676 28.7067 60.081 28.82C60.1943 28.8767 60.421 29.2167 60.761 29.84C61.101 30.4633 61.3276 30.8883 61.441 31.115C61.6676 31.5117 61.9793 32.1633 62.376 33.07C62.7726 33.92 63.0276 34.4583 63.141 34.685C63.2543 34.855 63.4526 35.3083 63.736 36.045C64.0193 36.725 64.161 37.15 64.161 37.32C64.2176 37.66 64.3026 38.1133 64.416 38.68C64.586 39.2467 64.671 39.5583 64.671 39.615V41.4V42.93C64.671 43.0433 64.586 43.3267 64.416 43.78C64.3026 44.1767 64.2176 44.545 64.161 44.885C64.161 44.9417 64.076 45.14 63.906 45.48C63.7926 45.82 63.736 46.0467 63.736 46.16C63.736 46.2733 63.651 46.4433 63.481 46.67C63.3676 46.8967 63.2543 47.0667 63.141 47.18C63.141 47.2367 63.0276 47.435 62.801 47.775C62.631 48.115 62.4893 48.3417 62.376 48.455C62.1493 48.625 61.866 48.9367 61.526 49.39C61.186 49.8433 60.9593 50.155 60.846 50.325L60.421 50.75C60.3643 50.8633 60.081 51.09 59.571 51.43C59.061 51.77 58.721 51.9967 58.551 52.11C58.4376 52.2233 58.211 52.4217 57.871 52.705C57.531 52.9317 57.3326 53.045 57.276 53.045C57.1626 53.1583 56.8226 53.3283 56.256 53.555C55.746 53.7817 55.491 53.9517 55.491 54.065C55.2643 54.1217 55.0376 54.405 54.811 54.915C54.641 55.425 54.556 55.765 54.556 55.935H54.301H53.961C53.961 55.8217 53.8193 55.5667 53.536 55.17C53.3093 54.7733 53.196 54.5183 53.196 54.405H53.026H52.686C52.5726 54.5183 52.3743 54.6317 52.091 54.745C51.8076 54.8017 51.666 54.8583 51.666 54.915L50.901 63.245L50.731 63.33H50.476C50.4193 63.33 50.391 63.3017 50.391 63.245C50.391 63.1317 50.306 62.8767 50.136 62.48C50.0226 62.14 49.966 61.9133 49.966 61.8C49.9093 61.5167 49.8243 61.035 49.711 60.355C49.6543 59.675 49.5976 58.9383 49.541 58.145C49.4843 57.3517 49.4276 56.5867 49.371 55.85C49.371 55.17 49.371 54.6883 49.371 54.405ZM41.211 34.26C41.211 34.3733 41.2676 34.685 41.381 35.195C41.4943 35.6483 41.551 35.9317 41.551 36.045C41.6643 36.1583 41.806 36.4133 41.976 36.81C42.146 37.15 42.316 37.5183 42.486 37.915C42.7126 38.3117 42.911 38.68 43.081 39.02C43.251 39.36 43.3926 39.5583 43.506 39.615C43.5626 39.8417 43.761 40.1817 44.101 40.635C44.441 41.0317 44.6676 41.3433 44.781 41.57C44.951 41.6833 45.2626 41.995 45.716 42.505C46.1693 42.9583 46.481 43.27 46.651 43.44C46.8776 43.5533 47.1893 43.8083 47.586 44.205C48.0393 44.545 48.3793 44.7717 48.606 44.885C48.6626 44.885 48.8326 44.97 49.116 45.14C49.456 45.31 49.8243 45.5083 50.221 45.735C50.6176 45.905 51.0143 46.075 51.411 46.245C51.8076 46.415 52.091 46.5 52.261 46.5C52.3743 46.6133 52.601 46.755 52.941 46.925C53.281 47.095 53.4793 47.18 53.536 47.18C53.706 47.18 53.9893 47.18 54.386 47.18C54.7826 47.18 55.1793 47.2083 55.576 47.265C56.0293 47.265 56.426 47.265 56.766 47.265C57.1626 47.265 57.446 47.265 57.616 47.265C57.616 47.095 57.5876 46.8117 57.531 46.415C57.531 45.9617 57.5026 45.5083 57.446 45.055C57.446 44.545 57.4176 44.0917 57.361 43.695C57.3043 43.2983 57.276 43.0433 57.276 42.93C57.276 42.8733 57.2193 42.7317 57.106 42.505C57.0493 42.2783 56.9643 42.0233 56.851 41.74C56.7943 41.4567 56.681 41.1733 56.511 40.89C56.3976 40.6067 56.3126 40.4083 56.256 40.295C56.1993 40.1817 56.086 39.955 55.916 39.615C55.8026 39.275 55.661 38.9067 55.491 38.51C55.321 38.1133 55.151 37.745 54.981 37.405C54.811 37.0083 54.6693 36.725 54.556 36.555C54.4426 36.385 54.216 35.9883 53.876 35.365C53.536 34.7417 53.3093 34.3733 53.196 34.26C53.0826 34.09 52.8276 33.7783 52.431 33.325C52.091 32.815 51.836 32.5033 51.666 32.39C51.666 32.2767 51.5243 32.135 51.241 31.965C51.0143 31.7383 50.901 31.5683 50.901 31.455C50.7876 31.7383 50.6743 32.3333 50.561 33.24C50.5043 34.1467 50.4476 34.7417 50.391 35.025C50.391 35.2517 50.306 35.62 50.136 36.13C50.0226 36.5833 49.966 36.8667 49.966 36.98H49.711H49.371C49.371 36.8667 49.286 36.64 49.116 36.3C49.0026 35.96 48.946 35.7617 48.946 35.705C48.946 35.535 48.9176 35.195 48.861 34.685C48.8043 34.175 48.7476 33.6367 48.691 33.07C48.691 32.5033 48.6626 31.965 48.606 31.455C48.606 30.945 48.606 30.605 48.606 30.435C48.4926 30.3783 48.3793 30.18 48.266 29.84C48.2093 29.5 48.1526 29.2733 48.096 29.16L47.671 28.82L47.416 28.565C47.416 28.565 47.3593 28.6217 47.246 28.735C47.1893 28.7917 47.1326 28.82 47.076 28.82C46.906 28.99 46.7076 29.1317 46.481 29.245C46.3676 29.3017 46.2543 29.3583 46.141 29.415C46.0843 29.415 46.0276 29.4433 45.971 29.5C45.8576 29.5567 45.801 29.6133 45.801 29.67C45.6876 29.67 45.5176 29.755 45.291 29.925C45.0643 30.0383 44.8943 30.095 44.781 30.095H44.271H43.506L43.081 29.67C42.9676 29.6133 42.8543 29.4717 42.741 29.245C42.6843 28.9617 42.5993 28.82 42.486 28.82C42.3726 28.82 42.2026 28.9617 41.976 29.245C41.806 29.4717 41.6643 29.6133 41.551 29.67C41.4943 29.84 41.4376 30.0383 41.381 30.265C41.2676 30.7183 41.211 31.0017 41.211 31.115V32.645V34.26ZM69.6528 56.87C69.5394 56.7567 69.3411 56.53 69.0578 56.19C68.7744 55.85 68.6328 55.6517 68.6328 55.595C68.6328 55.5383 68.6044 55.3683 68.5478 55.085C68.4911 54.8017 68.4344 54.49 68.3778 54.15C68.3778 53.81 68.3494 53.47 68.2928 53.13C68.2361 52.7333 68.1794 52.45 68.1228 52.28C68.1228 51.9967 68.0661 51.2317 67.9528 49.985C67.8961 48.7383 67.8111 47.4067 67.6978 45.99C67.6411 44.5167 67.5561 43.1567 67.4428 41.91C67.3861 40.6633 67.3578 39.87 67.3578 39.53C67.3011 39.4167 67.2444 39.1617 67.1878 38.765C67.1311 38.3683 67.0744 37.915 67.0178 37.405C67.0178 36.895 66.9894 36.4133 66.9328 35.96C66.8761 35.5067 66.8194 35.1667 66.7628 34.94C66.7628 34.6 66.6778 33.9767 66.5078 33.07C66.3944 32.1633 66.3378 31.54 66.3378 31.2C66.3378 31.03 66.2811 30.6333 66.1678 30.01C66.0544 29.33 65.9411 28.65 65.8278 27.97C65.7711 27.2333 65.7144 26.5533 65.6578 25.93C65.5444 25.3067 65.4878 24.91 65.4878 24.74V22.275V20.15C65.4878 20.0367 65.6011 19.7533 65.8278 19.3C66.1111 18.79 66.2811 18.4217 66.3378 18.195C66.4511 18.1383 66.6778 17.94 67.0178 17.6C67.4144 17.26 67.6694 17.0333 67.7828 16.92C67.8394 16.92 68.0378 16.7783 68.3778 16.495C68.7178 16.2117 68.9444 16.0133 69.0578 15.9C69.1144 15.9 69.3128 15.8433 69.6528 15.73C69.8228 15.6733 69.9644 15.6167 70.0778 15.56H70.8428H71.3528L71.5228 15.73C71.6361 15.8433 71.7778 15.9 71.9478 15.9C71.9478 15.9567 72.0044 16.155 72.1178 16.495C72.1744 16.665 72.2594 16.8067 72.3728 16.92V18.875C72.3728 19.1017 72.4294 19.6683 72.5428 20.575C72.7128 21.4817 72.8828 22.4733 73.0528 23.55C73.2228 24.6267 73.3644 25.6467 73.4778 26.61C73.5911 27.5733 73.6478 28.1683 73.6478 28.395C73.7044 28.5083 73.7611 28.7633 73.8178 29.16C73.8744 29.5 73.9028 29.8683 73.9028 30.265C73.9594 30.6617 74.0161 31.0583 74.0728 31.455C74.1294 31.795 74.1861 32.05 74.2428 32.22L74.6678 32.645C74.7811 32.3617 75.0078 31.88 75.3478 31.2C75.6878 30.4633 76.0561 29.6983 76.4528 28.905C76.8494 28.055 77.2178 27.29 77.5578 26.61C77.8978 25.8733 78.1244 25.3633 78.2378 25.08C78.3511 25.0233 78.5211 24.825 78.7478 24.485C78.9744 24.145 79.1444 23.9183 79.2578 23.805C79.4278 23.6917 79.7394 23.4083 80.1928 22.955C80.6461 22.445 80.9578 22.1333 81.1278 22.02C81.2411 21.9633 81.4678 21.8217 81.8078 21.595C82.1478 21.3117 82.3461 21.17 82.4028 21.17C82.5161 21.0567 82.7428 20.9433 83.0828 20.83C83.4794 20.7167 83.7344 20.6033 83.8478 20.49H83.9328H84.3578C84.4711 20.6033 84.6128 20.7167 84.7828 20.83C85.0094 20.9433 85.1228 21.0567 85.1228 21.17C85.2361 21.17 85.3211 21.2833 85.3778 21.51C85.4911 21.68 85.6044 21.85 85.7178 22.02C85.7178 22.1333 85.7744 22.3883 85.8878 22.785C86.0578 23.125 86.1428 23.3517 86.1428 23.465C86.1428 23.5217 86.1994 23.805 86.3128 24.315C86.4261 24.825 86.5394 25.08 86.6528 25.08C86.7094 25.3633 86.7944 25.7317 86.9078 26.185C87.0778 26.5817 87.2194 27.0067 87.3328 27.46C87.4461 27.8567 87.5594 28.2533 87.6728 28.65C87.8428 28.99 87.9561 29.2167 88.0128 29.33C88.0128 29.5 88.1261 29.8117 88.3528 30.265C88.6361 30.7183 88.8344 31.03 88.9478 31.2C88.9478 31.1433 89.0044 31.0017 89.1178 30.775C89.2311 30.5483 89.2878 30.4067 89.2878 30.35C89.2878 30.2933 89.3161 30.1517 89.3728 29.925C89.4861 29.6417 89.5994 29.3867 89.7128 29.16C89.8261 28.8767 89.9394 28.6217 90.0528 28.395C90.1661 28.1683 90.2511 28.055 90.3078 28.055C90.4211 27.885 90.5911 27.5733 90.8178 27.12C91.0444 26.6667 91.2711 26.185 91.4978 25.675C91.7244 25.165 91.9228 24.7117 92.0928 24.315C92.3194 23.8617 92.4894 23.5783 92.6028 23.465C92.7161 23.2383 92.8578 22.955 93.0278 22.615C93.2544 22.2183 93.4244 22.02 93.5378 22.02C93.5944 21.9633 93.7078 21.8217 93.8778 21.595C94.1044 21.3683 94.3311 21.1417 94.5578 20.915C94.8411 20.6317 95.0961 20.3767 95.3228 20.15C95.5494 19.9233 95.7194 19.7817 95.8328 19.725C95.9461 19.6683 96.1728 19.5267 96.5128 19.3C96.8528 19.0167 97.0794 18.875 97.1928 18.875C97.3061 18.7617 97.5328 18.6483 97.8728 18.535C98.2128 18.4217 98.4111 18.3083 98.4678 18.195H98.8928H99.4878C99.6011 18.3083 99.7428 18.4217 99.9128 18.535C100.139 18.6483 100.309 18.7617 100.423 18.875C100.536 18.9317 100.678 19.0733 100.848 19.3C101.074 19.5267 101.188 19.6683 101.188 19.725C101.244 19.8383 101.358 20.065 101.528 20.405C101.754 20.745 101.981 21.1133 102.208 21.51C102.434 21.85 102.633 22.2183 102.803 22.615C102.973 23.0117 103.058 23.295 103.058 23.465C103.114 23.465 103.171 23.5783 103.228 23.805C103.341 24.0317 103.454 24.2867 103.568 24.57C103.681 24.8533 103.766 25.1367 103.823 25.42C103.936 25.7033 104.021 25.93 104.078 26.1C104.078 26.2133 104.134 26.525 104.248 27.035C104.418 27.4883 104.503 27.8283 104.503 28.055C104.559 28.395 104.729 29.1883 105.013 30.435C105.296 31.6817 105.579 33.0133 105.863 34.43C106.146 35.8467 106.429 37.1783 106.713 38.425C106.996 39.6717 107.194 40.465 107.308 40.805C107.308 41.0883 107.449 41.6267 107.733 42.42C108.016 43.2133 108.214 43.78 108.328 44.12C108.328 44.29 108.441 44.6867 108.668 45.31C108.951 45.9333 109.093 46.3017 109.093 46.415C109.149 46.4717 109.206 46.5567 109.263 46.67C109.376 46.7267 109.489 46.755 109.603 46.755C109.603 46.8683 109.801 46.9817 110.198 47.095C110.594 47.1517 110.849 47.2083 110.963 47.265C111.076 47.3783 111.246 47.5483 111.473 47.775C111.756 48.0017 111.898 48.1717 111.898 48.285V48.795V49.56C111.784 49.7867 111.614 50.1267 111.388 50.58C111.218 50.9767 111.076 51.2317 110.963 51.345C110.906 51.4583 110.736 51.6567 110.453 51.94C110.226 52.2233 109.971 52.5067 109.688 52.79C109.404 53.0733 109.121 53.3567 108.838 53.64C108.554 53.9233 108.384 54.0933 108.328 54.15C108.214 54.15 108.044 54.235 107.818 54.405C107.591 54.5183 107.421 54.575 107.308 54.575C107.194 54.6883 106.939 54.8017 106.543 54.915C106.203 54.9717 106.033 55.0567 106.033 55.17H105.608H105.353C105.296 55.0567 105.154 54.9717 104.928 54.915C104.701 54.8017 104.559 54.6883 104.503 54.575C104.389 54.4617 104.134 54.235 103.738 53.895C103.398 53.555 103.171 53.3567 103.058 53.3C103.001 53.1867 102.859 52.96 102.633 52.62C102.406 52.2233 102.264 51.9683 102.208 51.855C102.094 51.6283 101.953 51.26 101.783 50.75C101.613 50.24 101.443 49.7017 101.273 49.135C101.103 48.5117 100.933 47.945 100.763 47.435C100.593 46.925 100.479 46.585 100.423 46.415C100.309 46.075 100.111 45.2533 99.8278 43.95C99.5444 42.6467 99.2611 41.2867 98.9778 39.87C98.6944 38.3967 98.4111 37.0367 98.1278 35.79C97.8444 34.5433 97.6744 33.7783 97.6178 33.495C97.6178 33.325 97.5328 33.0133 97.3628 32.56C97.2494 32.05 97.1928 31.7383 97.1928 31.625C97.0794 31.3983 96.9094 30.945 96.6828 30.265C96.4561 29.585 96.2861 29.1317 96.1728 28.905L95.8328 29.33C95.7761 29.4433 95.6911 29.67 95.5778 30.01C95.5211 30.2933 95.4361 30.6333 95.3228 31.03C95.2661 31.4267 95.1811 31.8233 95.0678 32.22C95.0111 32.56 94.9544 32.815 94.8978 32.985C94.7844 33.2683 94.6711 33.835 94.5578 34.685C94.5011 35.4783 94.4161 35.9883 94.3028 36.215V38.34V40.38C94.3028 40.4933 94.3594 40.8333 94.4728 41.4C94.6428 41.9667 94.7844 42.3917 94.8978 42.675C94.8978 42.7883 94.9544 43.0433 95.0678 43.44C95.2378 43.78 95.3228 44.0067 95.3228 44.12V45.225V46.415C95.3228 46.4717 95.2661 46.6133 95.1528 46.84C95.0961 47.0667 95.0111 47.2083 94.8978 47.265C94.7844 47.3783 94.5861 47.5767 94.3028 47.86C94.0761 48.0867 93.8211 48.3417 93.5378 48.625C93.2544 48.9083 92.9711 49.1917 92.6878 49.475C92.4044 49.7017 92.1778 49.8717 92.0078 49.985C92.0078 50.155 91.8661 50.2967 91.5828 50.41L91.2428 50.58H89.7128H88.9478L80.5328 33.92L80.1078 33.495C79.9944 33.7783 79.7961 34.3167 79.5128 35.11C79.2861 35.9033 79.0311 36.7533 78.7478 37.66C78.4644 38.5667 78.1811 39.4167 77.8978 40.21C77.6144 41.0033 77.4161 41.5417 77.3028 41.825C77.3028 41.9383 77.2461 42.1933 77.1328 42.59C77.0761 42.93 76.9911 43.2983 76.8778 43.695C76.8211 44.035 76.7361 44.375 76.6228 44.715C76.5661 45.055 76.5378 45.2817 76.5378 45.395C76.4811 45.5083 76.4244 45.7633 76.3678 46.16C76.3111 46.5567 76.2544 47.01 76.1978 47.52C76.1978 47.9733 76.1694 48.4267 76.1128 48.88C76.0561 49.2767 75.9994 49.5033 75.9428 49.56C75.9428 49.7867 75.8578 50.1267 75.6878 50.58C75.5744 50.9767 75.5178 51.2317 75.5178 51.345C75.5178 51.4583 75.4328 51.6567 75.2628 51.94C75.1494 52.2233 75.0078 52.5067 74.8378 52.79C74.6678 53.0733 74.5261 53.3567 74.4128 53.64C74.2994 53.9233 74.2428 54.0933 74.2428 54.15C74.1861 54.2633 74.1294 54.5183 74.0728 54.915C74.0161 55.255 73.9594 55.6233 73.9028 56.02C73.9028 56.4167 73.8744 56.785 73.8178 57.125C73.7611 57.5217 73.7044 57.7767 73.6478 57.89C73.6478 57.9467 73.5628 58.145 73.3928 58.485C73.2794 58.825 73.2228 59.0517 73.2228 59.165C73.1661 59.0517 73.0811 58.825 72.9678 58.485C72.9111 58.145 72.8261 57.9467 72.7128 57.89C72.7128 57.7767 72.6561 57.465 72.5428 56.955C72.4294 56.5017 72.3728 56.2183 72.3728 56.105L72.1178 55.935L71.9478 56.105C71.5511 56.105 71.3528 56.2183 71.3528 56.445C71.3528 56.7283 71.2961 57.21 71.1828 57.89C71.1261 58.6267 71.0411 59.3917 70.9278 60.185C70.8144 60.9783 70.7011 61.715 70.5878 62.395C70.5311 63.075 70.4744 63.5283 70.4178 63.755C70.4178 63.925 70.3611 64.265 70.2478 64.775C70.1911 65.285 70.1344 65.5683 70.0778 65.625L69.6528 64.35V56.87ZM114.584 66.05C114.584 65.88 114.556 65.5683 114.499 65.115C114.499 64.6617 114.471 64.18 114.414 63.67C114.357 63.2167 114.301 62.7633 114.244 62.31C114.244 61.9133 114.244 61.63 114.244 61.46C114.187 60.95 114.102 59.9867 113.989 58.57C113.876 57.1533 113.734 55.5383 113.564 53.725C113.451 51.9117 113.309 49.985 113.139 47.945C113.026 45.8483 112.912 43.865 112.799 41.995C112.686 40.125 112.572 38.4817 112.459 37.065C112.346 35.6483 112.289 34.6567 112.289 34.09C112.289 33.9767 112.261 33.7783 112.204 33.495C112.204 33.155 112.204 32.815 112.204 32.475C112.204 32.135 112.204 31.8233 112.204 31.54C112.204 31.2 112.204 30.945 112.204 30.775C112.204 30.605 112.204 30.1233 112.204 29.33C112.204 28.5367 112.176 27.715 112.119 26.865C112.062 25.9583 112.006 25.1083 111.949 24.315C111.949 23.5217 111.921 23.04 111.864 22.87V21.935C111.864 21.6517 111.836 21.3967 111.779 21.17C111.722 20.8867 111.666 20.6883 111.609 20.575C111.609 20.5183 111.581 20.2917 111.524 19.895C111.467 19.4417 111.411 18.9883 111.354 18.535C111.297 18.0817 111.269 17.6567 111.269 17.26C111.212 16.8067 111.184 16.5233 111.184 16.41C111.184 16.3533 111.212 16.1267 111.269 15.73C111.269 15.2767 111.269 14.965 111.269 14.795C111.269 14.6817 111.297 14.54 111.354 14.37C111.354 14.2 111.354 14.03 111.354 13.86C111.354 13.6333 111.382 13.435 111.439 13.265C111.439 13.1517 111.496 12.9817 111.609 12.755C111.779 12.5283 111.864 12.3583 111.864 12.245C111.977 12.1883 112.176 12.0467 112.459 11.82C112.742 11.5367 113.026 11.2817 113.309 11.055C113.649 10.7717 113.961 10.5167 114.244 10.29C114.527 10.0633 114.754 9.89333 114.924 9.78C115.037 9.78 115.207 9.72333 115.434 9.61C115.661 9.44 115.831 9.38333 115.944 9.44H116.709C116.766 9.49666 116.936 9.525 117.219 9.525H117.644C117.757 9.695 117.956 9.92167 118.239 10.205C118.522 10.4883 118.806 10.8 119.089 11.14C119.429 11.48 119.741 11.7917 120.024 12.075C120.307 12.3583 120.534 12.5567 120.704 12.67C120.761 12.7267 120.902 12.8683 121.129 13.095C121.412 13.265 121.667 13.4633 121.894 13.69C122.177 13.86 122.432 14.0583 122.659 14.285C122.886 14.455 123.056 14.5683 123.169 14.625C123.452 14.795 124.047 15.1633 124.954 15.73C125.861 16.2967 126.824 16.92 127.844 17.6C128.921 18.28 129.884 18.9033 130.734 19.47C131.641 20.0367 132.179 20.405 132.349 20.575C132.406 20.6317 132.547 20.7733 132.774 21C133.057 21.17 133.341 21.3683 133.624 21.595C133.907 21.765 134.162 21.9633 134.389 22.19C134.616 22.36 134.786 22.5017 134.899 22.615C135.069 22.7283 135.409 23.04 135.919 23.55C136.486 24.06 136.854 24.4567 137.024 24.74C137.194 24.74 137.336 24.7967 137.449 24.91L137.619 25.08C137.846 25.3633 138.072 25.76 138.299 26.27C138.582 26.78 138.724 27.0917 138.724 27.205C138.837 27.375 139.036 27.8283 139.319 28.565C139.602 29.3017 139.801 29.755 139.914 29.925C139.971 30.1517 140.027 30.52 140.084 31.03C140.197 31.4833 140.254 31.7667 140.254 31.88C140.254 31.9367 140.226 32.3617 140.169 33.155C140.112 33.9483 140.056 34.5717 139.999 35.025C139.942 35.2517 139.914 35.5067 139.914 35.79C139.914 36.0733 139.886 36.3567 139.829 36.64C139.772 36.98 139.744 37.3483 139.744 37.745C139.744 37.8583 139.574 38.255 139.234 38.935C138.894 39.615 138.667 40.1533 138.554 40.55C138.497 40.6633 138.412 40.7767 138.299 40.89C138.186 41.0033 138.101 41.1167 138.044 41.23C137.987 41.2867 137.931 41.2867 137.874 41.23C137.874 41.3433 137.761 41.5983 137.534 41.995C137.307 42.335 137.137 42.59 137.024 42.76C136.741 42.93 136.401 43.2133 136.004 43.61C135.664 43.95 135.437 44.1767 135.324 44.29C135.324 44.4033 135.182 44.5733 134.899 44.8C134.616 44.97 134.474 45.1117 134.474 45.225C134.247 45.2817 133.822 45.5367 133.199 45.99C132.576 46.4433 132.179 46.755 132.009 46.925C131.896 46.925 131.754 47.18 131.584 47.69C131.471 48.1433 131.414 48.4267 131.414 48.54C131.357 48.71 131.244 48.9933 131.074 49.39C130.904 49.73 130.819 49.9567 130.819 50.07L130.649 50.24C130.592 50.2967 130.451 50.325 130.224 50.325C130.224 50.2683 130.167 50.1267 130.054 49.9C129.941 49.6733 129.884 49.5317 129.884 49.475C129.827 49.3617 129.771 49.1067 129.714 48.71C129.657 48.3133 129.629 48.0583 129.629 47.945L128.439 48.285L127.929 53.47C127.872 53.5267 127.787 53.5833 127.674 53.64C127.447 53.7533 127.277 53.81 127.164 53.81H127.079H126.824C126.711 53.6967 126.597 53.4417 126.484 53.045C126.427 52.6483 126.427 52.3933 126.484 52.28C126.484 51.9967 126.456 51.4017 126.399 50.495C126.342 49.5883 126.314 48.9933 126.314 48.71C126.031 48.54 125.492 48.3983 124.699 48.285C123.962 48.115 123.424 47.9733 123.084 47.86L122.744 48.03L121.979 62.14C121.979 62.2533 121.837 62.5083 121.554 62.905C121.271 63.3017 121.072 63.6133 120.959 63.84C120.846 63.8967 120.676 64.01 120.449 64.18C120.222 64.4067 119.967 64.6333 119.684 64.86C119.457 65.0867 119.202 65.285 118.919 65.455C118.692 65.6817 118.522 65.8233 118.409 65.88C118.239 65.9367 117.927 66.0783 117.474 66.305C117.021 66.5317 116.709 66.6167 116.539 66.56H115.774L115.094 66.475C115.037 66.475 114.952 66.4183 114.839 66.305C114.782 66.1917 114.697 66.1067 114.584 66.05ZM120.534 23.635C120.534 23.7483 120.506 24.0033 120.449 24.4C120.449 24.7967 120.449 25.0517 120.449 25.165C120.506 25.2783 120.591 25.7317 120.704 26.525C120.817 27.3183 120.902 28.225 120.959 29.245C121.072 30.2083 121.157 31.2 121.214 32.22C121.327 33.1833 121.412 33.92 121.469 34.43C121.526 34.6567 121.582 34.9967 121.639 35.45C121.752 35.8467 121.809 36.1017 121.809 36.215L121.979 36.385C122.092 36.4983 122.149 36.64 122.149 36.81C122.319 36.9233 122.574 37.1217 122.914 37.405C123.254 37.6317 123.594 37.8867 123.934 38.17C124.274 38.4533 124.557 38.7083 124.784 38.935C125.067 39.1617 125.237 39.3033 125.294 39.36C125.521 39.6433 125.946 39.9833 126.569 40.38C127.249 40.72 127.702 40.89 127.929 40.89C128.212 40.9467 128.467 40.975 128.694 40.975C128.921 41.0317 129.119 41.06 129.289 41.06C129.516 41.06 129.686 41.06 129.799 41.06C130.026 41.1167 130.422 41.1733 130.989 41.23C131.556 41.23 131.896 41.23 132.009 41.23C132.066 41.23 132.179 41.06 132.349 40.72C132.519 40.38 132.604 40.1533 132.604 40.04C132.661 39.9267 132.689 39.6717 132.689 39.275C132.746 38.8217 132.774 38.4817 132.774 38.255C132.774 38.1417 132.774 38.0283 132.774 37.915C132.831 37.745 132.859 37.575 132.859 37.405C132.859 37.1783 132.887 36.9517 132.944 36.725C132.831 36.555 132.746 36.2433 132.689 35.79C132.632 35.3367 132.604 35.025 132.604 34.855C132.491 34.5717 132.292 34.0617 132.009 33.325C131.726 32.5883 131.527 32.135 131.414 31.965C131.414 31.9083 131.301 31.7383 131.074 31.455C130.847 31.1717 130.592 30.8883 130.309 30.605C130.082 30.265 129.827 29.9533 129.544 29.67C129.317 29.33 129.147 29.1033 129.034 28.99C128.921 28.99 128.751 28.9333 128.524 28.82C128.354 28.7633 128.212 28.6783 128.099 28.565C128.042 28.8483 127.901 29.3583 127.674 30.095C127.504 30.8317 127.362 31.3417 127.249 31.625L126.739 32.05C126.682 32.05 126.626 31.965 126.569 31.795C126.512 31.7383 126.484 31.6533 126.484 31.54C126.371 31.4833 126.257 31.285 126.144 30.945C126.087 30.605 126.059 30.3783 126.059 30.265C126.059 30.2083 126.059 30.01 126.059 29.67C126.059 29.33 126.031 28.9617 125.974 28.565C125.974 28.1683 125.974 27.8283 125.974 27.545C125.974 27.205 125.974 27.0067 125.974 26.95C125.974 26.8933 125.889 26.8083 125.719 26.695C125.606 26.5817 125.492 26.4683 125.379 26.355C125.096 26.185 124.727 25.9583 124.274 25.675C123.821 25.3917 123.367 25.1083 122.914 24.825C122.461 24.485 122.036 24.2017 121.639 23.975C121.299 23.7483 121.101 23.635 121.044 23.635H120.534ZM145.452 63.67V55.85C145.225 55.7367 144.885 55.5667 144.432 55.34C144.035 55.1133 143.723 54.9433 143.497 54.83C143.44 54.66 143.383 54.5183 143.327 54.405C143.213 54.1783 143.157 54.0367 143.157 53.98C143.157 53.8667 143.072 53.4983 142.902 52.875C142.788 52.2517 142.732 51.855 142.732 51.685C142.675 51.515 142.59 51.2317 142.477 50.835C142.42 50.4383 142.363 50.0417 142.307 49.645C142.25 49.1917 142.193 48.7667 142.137 48.37C142.137 47.9167 142.137 47.605 142.137 47.435C142.08 46.755 141.995 45.82 141.882 44.63C141.825 43.3833 141.74 42.1367 141.627 40.89C141.57 39.5867 141.485 38.425 141.372 37.405C141.315 36.385 141.258 35.79 141.202 35.62V32.135V28.735C141.315 28.5083 141.457 28.1683 141.627 27.715C141.853 27.205 142.023 26.8933 142.137 26.78C142.25 26.6667 142.533 26.3833 142.987 25.93C143.497 25.42 143.837 25.1083 144.007 24.995C144.12 24.825 144.347 24.655 144.687 24.485C145.083 24.2583 145.338 24.145 145.452 24.145C145.508 24.145 145.707 24.1167 146.047 24.06C146.387 23.9467 146.613 23.89 146.727 23.89C146.783 23.89 146.982 23.9467 147.322 24.06C147.492 24.1167 147.633 24.145 147.747 24.145L148.087 24.995C148.143 25.335 148.2 25.9867 148.257 26.95C148.313 27.8567 148.342 28.82 148.342 29.84C148.398 30.86 148.455 31.8233 148.512 32.73C148.568 33.6367 148.597 34.26 148.597 34.6C148.597 34.94 148.625 35.5917 148.682 36.555C148.795 37.5183 148.908 38.5667 149.022 39.7C149.135 40.8333 149.248 41.91 149.362 42.93C149.475 43.95 149.56 44.6867 149.617 45.14C149.617 45.2533 149.645 45.48 149.702 45.82C149.758 46.16 149.787 46.5283 149.787 46.925C149.843 47.265 149.9 47.5767 149.957 47.86C150.013 48.1433 150.042 48.3133 150.042 48.37V49.39V50.24C150.042 50.3533 149.957 50.6083 149.787 51.005C149.673 51.345 149.617 51.5717 149.617 51.685C149.503 51.7417 149.305 51.9683 149.022 52.365C148.852 52.5917 148.71 52.79 148.597 52.96C148.483 53.3 148.313 53.64 148.087 53.98C148.087 54.4333 148.058 55.255 148.002 56.445C147.945 57.6917 147.86 58.995 147.747 60.355C147.69 61.715 147.605 62.99 147.492 64.18C147.435 65.37 147.378 66.22 147.322 66.73C147.322 66.8433 147.237 67.24 147.067 67.92C146.953 68.6567 146.84 69.2233 146.727 69.62C146.727 69.8467 146.642 70.2433 146.472 70.81C146.358 71.4333 146.302 71.8017 146.302 71.915C146.302 72.0283 146.245 72.255 146.132 72.595C146.018 72.935 145.905 73.1333 145.792 73.19V64.01L145.452 63.67ZM141.117 4.255C141.117 4.19833 141.117 4.14166 141.117 4.085C141.173 3.97167 141.202 3.88666 141.202 3.83C141.202 3.77333 141.23 3.71666 141.287 3.66C141.343 3.43333 141.542 3.12166 141.882 2.725C142.278 2.32833 142.505 2.07333 142.562 1.96C142.618 1.96 142.76 1.90333 142.987 1.79C143.27 1.62 143.553 1.45 143.837 1.28C144.177 1.05333 144.488 0.854996 144.772 0.684995C145.055 0.514997 145.282 0.401665 145.452 0.344999C145.565 0.28833 145.735 0.259995 145.962 0.259995C146.188 0.259995 146.358 0.259995 146.472 0.259995L146.982 0.429998C147.152 0.486664 147.378 0.514997 147.662 0.514997C147.888 0.628329 148.087 0.71333 148.257 0.769999C148.37 0.826665 148.512 0.883331 148.682 0.939997C148.682 1.22333 148.71 1.47833 148.767 1.705C148.88 2.27166 148.965 2.64 149.022 2.81C149.022 2.92333 149.022 3.17833 149.022 3.575C149.078 3.97166 149.107 4.39666 149.107 4.85C149.163 5.30333 149.22 5.75667 149.277 6.21C149.333 6.66333 149.362 7.00333 149.362 7.23C149.362 7.74 149.362 8.44833 149.362 9.355C149.362 10.205 149.362 11.055 149.362 11.905C149.418 12.755 149.447 13.52 149.447 14.2C149.503 14.88 149.56 15.2767 149.617 15.39C149.56 15.6167 149.503 15.815 149.447 15.985C149.333 16.325 149.248 16.58 149.192 16.75C149.135 16.8633 149.107 17.005 149.107 17.175C149.107 17.2883 149.078 17.4017 149.022 17.515C148.965 17.685 148.908 17.8267 148.852 17.94C148.682 18.0533 148.512 18.3083 148.342 18.705C148.172 19.045 148.03 19.215 147.917 19.215C147.803 19.2717 147.548 19.4133 147.152 19.64C146.812 19.8667 146.415 20.0933 145.962 20.32C145.565 20.5467 145.168 20.7733 144.772 21C144.375 21.17 144.092 21.2833 143.922 21.34C143.922 21.4533 143.723 21.51 143.327 21.51C142.987 21.51 142.732 21.5667 142.562 21.68L142.392 21.595H142.137C142.08 21.4817 141.938 21.34 141.712 21.17C141.485 20.9433 141.4 20.7733 141.457 20.66C141.513 20.6033 141.513 20.32 141.457 19.81C141.457 19.3 141.457 19.0167 141.457 18.96C141.4 18.5633 141.343 17.9683 141.287 17.175C141.287 16.325 141.287 15.475 141.287 14.625C141.287 13.7183 141.287 12.8967 141.287 12.16C141.287 11.4233 141.287 10.9417 141.287 10.715C141.287 10.6017 141.258 10.2617 141.202 9.695C141.145 9.12833 141.088 8.53333 141.032 7.91C140.975 7.23 140.947 6.60666 140.947 6.04C140.947 5.47333 140.947 5.13333 140.947 5.02C140.947 4.90666 140.975 4.79333 141.032 4.68C141.032 4.56666 141.032 4.48166 141.032 4.425C141.088 4.36833 141.117 4.31167 141.117 4.255ZM165.699 57.21C165.529 57.04 165.218 56.8133 164.764 56.53C164.368 56.3033 164.084 56.1333 163.914 56.02C163.801 55.9633 163.574 55.7367 163.234 55.34C162.951 55 162.753 54.7733 162.639 54.66C162.583 54.49 162.441 54.235 162.214 53.895C162.044 53.555 161.931 53.2717 161.874 53.045C161.761 52.875 161.619 52.5917 161.449 52.195C161.336 51.7983 161.194 51.4017 161.024 51.005C160.854 50.6083 160.684 50.24 160.514 49.9C160.401 49.56 160.316 49.3333 160.259 49.22C160.259 49.1067 160.203 48.88 160.089 48.54C160.033 48.1433 159.948 47.7467 159.834 47.35C159.721 46.8967 159.608 46.4717 159.494 46.075C159.381 45.6217 159.296 45.31 159.239 45.14C159.239 44.97 159.211 44.715 159.154 44.375C159.154 43.9783 159.098 43.5817 158.984 43.185C158.928 42.7317 158.871 42.335 158.814 41.995C158.758 41.5983 158.701 41.3433 158.644 41.23C158.644 41.1167 158.616 40.72 158.559 40.04C158.559 39.36 158.559 38.8783 158.559 38.595C158.559 38.4817 158.531 38.255 158.474 37.915C158.474 37.5183 158.474 37.1217 158.474 36.725C158.474 36.2717 158.474 35.875 158.474 35.535C158.474 35.1383 158.474 34.8833 158.474 34.77C158.361 34.6 158.276 34.2033 158.219 33.58C158.219 32.9567 158.163 32.5883 158.049 32.475H157.879L157.624 32.39C157.624 32.39 157.511 32.4183 157.284 32.475C157.058 32.475 156.803 32.5033 156.519 32.56C156.293 32.56 156.038 32.5883 155.754 32.645C155.528 32.645 155.386 32.645 155.329 32.645C155.273 32.645 155.103 32.645 154.819 32.645C154.536 32.5883 154.281 32.56 154.054 32.56C153.941 32.56 153.828 32.56 153.714 32.56C153.658 32.5033 153.573 32.475 153.459 32.475H153.034C152.978 32.475 152.836 32.3333 152.609 32.05C152.439 31.7667 152.326 31.5683 152.269 31.455V31.2V31.115C152.269 31.0017 152.326 30.775 152.439 30.435C152.609 30.0383 152.723 29.7833 152.779 29.67C152.893 29.4433 153.006 29.2733 153.119 29.16C153.176 29.0467 153.261 28.9617 153.374 28.905C153.488 28.735 153.714 28.48 154.054 28.14C154.451 27.8 154.848 27.46 155.244 27.12C155.698 26.7233 156.123 26.3833 156.519 26.1C156.916 25.8167 157.199 25.6183 157.369 25.505C157.426 25.4483 157.624 25.3067 157.964 25.08C158.361 24.8533 158.616 24.74 158.729 24.74C158.786 24.5133 158.899 24.0883 159.069 23.465C159.239 22.8417 159.381 22.19 159.494 21.51C159.664 20.83 159.806 20.2067 159.919 19.64C160.089 19.0167 160.231 18.5917 160.344 18.365C160.344 18.195 160.373 17.9683 160.429 17.685C160.486 17.345 160.543 17.0333 160.599 16.75C160.656 16.41 160.741 16.07 160.854 15.73C160.968 15.39 161.251 14.88 161.704 14.2C162.158 13.52 162.469 13.095 162.639 12.925C162.753 12.8683 163.036 12.6133 163.489 12.16C163.943 11.7067 164.283 11.48 164.509 11.48C164.679 11.3667 164.991 11.1967 165.444 10.97C165.954 10.6867 166.294 10.545 166.464 10.545C166.578 10.6017 166.691 10.63 166.804 10.63H167.229L167.909 10.715C167.966 10.715 168.023 10.7717 168.079 10.885C168.136 10.9983 168.221 11.055 168.334 11.055C168.334 11.2817 168.306 11.735 168.249 12.415C168.193 13.095 168.164 13.4917 168.164 13.605C168.108 14.0017 168.051 14.54 167.994 15.22C167.938 15.8433 167.909 16.2117 167.909 16.325C167.796 16.5517 167.683 16.75 167.569 16.92C167.399 17.26 167.314 17.4867 167.314 17.6C167.314 17.8833 167.286 18.3367 167.229 18.96C167.173 19.5833 167.116 20.235 167.059 20.915C167.003 21.595 166.946 22.2467 166.889 22.87C166.833 23.4367 166.804 23.805 166.804 23.975L167.569 24.06C167.966 24.0033 168.589 23.89 169.439 23.72C170.289 23.4933 171.196 23.2667 172.159 23.04C173.123 22.8133 174.029 22.615 174.879 22.445C175.729 22.275 176.324 22.1333 176.664 22.02C176.834 21.9633 177.089 21.9067 177.429 21.85C177.826 21.7933 178.194 21.7083 178.534 21.595C178.931 21.4817 179.356 21.3967 179.809 21.34C179.923 21.34 180.178 21.3683 180.574 21.425C180.971 21.425 181.283 21.425 181.509 21.425C181.566 21.4817 181.793 21.5383 182.189 21.595C182.643 21.595 182.926 21.595 183.039 21.595C183.096 21.7083 183.153 21.8217 183.209 21.935C183.323 22.0483 183.436 22.19 183.549 22.36C183.493 22.4167 183.464 22.4733 183.464 22.53V22.785C183.464 22.8983 183.436 22.9833 183.379 23.04C183.379 23.0967 183.379 23.1817 183.379 23.295V23.55C183.266 23.6633 183.181 23.805 183.124 23.975C183.011 24.0883 182.926 24.2017 182.869 24.315C182.869 24.4283 182.841 24.5133 182.784 24.57C182.671 24.6267 182.473 24.825 182.189 25.165C181.963 25.4483 181.793 25.6467 181.679 25.76C181.679 25.8733 181.538 26.0433 181.254 26.27C180.971 26.44 180.829 26.5817 180.829 26.695C180.716 26.7517 180.461 26.8933 180.064 27.12C179.668 27.29 179.384 27.375 179.214 27.375C179.101 27.375 178.818 27.4883 178.364 27.715C177.911 27.9417 177.628 28.055 177.514 28.055L177.004 33.24L176.494 32.56L176.069 28.565L175.134 28.48V28.82C175.078 29.0467 175.078 29.585 175.134 30.435C175.248 31.285 175.276 31.8233 175.219 32.05C175.219 32.2767 175.219 32.6167 175.219 33.07C175.219 33.5233 175.219 34.005 175.219 34.515C175.219 35.025 175.219 35.5067 175.219 35.96C175.276 36.3567 175.333 36.6117 175.389 36.725C175.333 36.8383 175.304 36.9517 175.304 37.065V37.49L175.219 38.085L174.709 37.66L173.604 28.48L166.209 30.35C166.153 30.4633 166.124 30.605 166.124 30.775C166.124 30.8883 166.096 31.03 166.039 31.2C166.039 31.3133 166.039 31.4267 166.039 31.54C166.039 31.71 166.011 32.0217 165.954 32.475C165.954 32.8717 165.954 33.0983 165.954 33.155C165.954 33.5517 165.983 33.92 166.039 34.26C166.096 34.5433 166.124 34.855 166.124 35.195C166.124 35.4783 166.153 35.705 166.209 35.875C166.209 36.045 166.238 36.4417 166.294 37.065C166.351 37.6317 166.379 38.0283 166.379 38.255C166.323 38.425 166.351 38.765 166.464 39.275C166.578 39.785 166.634 40.0683 166.634 40.125C166.691 40.4083 166.776 40.7767 166.889 41.23C167.003 41.6267 167.116 42.0517 167.229 42.505C167.343 42.9583 167.456 43.355 167.569 43.695C167.683 44.035 167.739 44.2333 167.739 44.29C167.739 44.4033 167.796 44.6583 167.909 45.055C168.023 45.395 168.164 45.7917 168.334 46.245C168.504 46.6417 168.646 47.0383 168.759 47.435C168.929 47.8317 169.071 48.115 169.184 48.285C169.241 48.3983 169.298 48.4833 169.354 48.54C169.524 48.71 169.638 48.795 169.694 48.795C169.808 48.795 170.091 48.88 170.544 49.05C170.998 49.1633 171.281 49.22 171.394 49.22C171.451 49.3333 171.536 49.4467 171.649 49.56C171.819 49.6733 171.904 49.7583 171.904 49.815C171.848 49.985 171.819 50.1267 171.819 50.24V50.835C171.819 50.8917 171.791 50.9483 171.734 51.005C171.734 51.0617 171.734 51.1467 171.734 51.26V51.6C171.621 51.7133 171.423 51.9967 171.139 52.45C170.913 52.9033 170.743 53.2433 170.629 53.47C170.516 53.47 170.289 53.64 169.949 53.98C169.666 54.32 169.496 54.5467 169.439 54.66L168.844 61.46L168.079 61.375L167.909 60.695C167.853 60.525 167.796 60.3267 167.739 60.1C167.739 59.93 167.768 59.7883 167.824 59.675C167.768 59.505 167.711 59.25 167.654 58.91C167.654 58.6267 167.654 58.315 167.654 57.975C167.654 57.635 167.626 57.295 167.569 56.955C167.569 56.6717 167.541 56.4733 167.484 56.36L165.869 74.635L165.699 57.21ZM195.528 57.55C195.528 57.7767 195.443 58.2867 195.273 59.08C195.16 59.93 195.047 60.4967 194.933 60.78L194.508 61.545L193.743 61.12V55.68C193.63 55.6233 193.375 55.5383 192.978 55.425C192.638 55.3683 192.27 55.2833 191.873 55.17C191.477 55.0567 191.08 54.9717 190.683 54.915C190.343 54.8017 190.088 54.7167 189.918 54.66C189.805 54.66 189.607 54.6317 189.323 54.575C189.097 54.4617 188.842 54.3483 188.558 54.235C188.275 54.1217 187.992 54.0367 187.708 53.98C187.425 53.8667 187.227 53.7817 187.113 53.725C187 53.725 186.717 53.64 186.263 53.47C185.867 53.2433 185.555 53.0733 185.328 52.96C185.272 52.8467 185.073 52.6767 184.733 52.45C184.393 52.2233 184.167 52.0533 184.053 51.94C183.883 51.77 183.543 51.515 183.033 51.175C182.523 50.835 182.24 50.665 182.183 50.665C182.07 50.495 181.758 50.155 181.248 49.645C180.795 49.135 180.455 48.8517 180.228 48.795C180.228 48.6817 180.03 48.3983 179.633 47.945C179.293 47.4917 179.038 47.1233 178.868 46.84C178.755 46.7267 178.585 46.5 178.358 46.16C178.188 45.82 178.047 45.5933 177.933 45.48C177.877 45.3667 177.763 45.1967 177.593 44.97C177.48 44.6867 177.367 44.4033 177.253 44.12C177.14 43.78 176.998 43.4967 176.828 43.27C176.715 42.9867 176.63 42.8167 176.573 42.76C176.46 42.59 176.29 42.165 176.063 41.485C175.893 40.7483 175.752 40.2383 175.638 39.955C175.638 39.785 175.582 39.36 175.468 38.68C175.355 37.9433 175.298 37.49 175.298 37.32V35.025V32.73C175.298 32.6167 175.355 32.2483 175.468 31.625C175.582 31.0017 175.638 30.605 175.638 30.435C175.752 30.095 175.893 29.585 176.063 28.905C176.29 28.1683 176.46 27.6867 176.573 27.46C176.63 27.46 176.715 27.3467 176.828 27.12C176.998 26.8933 177.14 26.6383 177.253 26.355C177.367 26.0717 177.48 25.7883 177.593 25.505C177.763 25.2217 177.877 24.995 177.933 24.825C178.047 24.7117 178.188 24.485 178.358 24.145C178.585 23.805 178.755 23.6067 178.868 23.55C179.038 23.3233 179.293 22.9833 179.633 22.53C180.03 22.02 180.228 21.7083 180.228 21.595C180.342 21.4817 180.568 21.255 180.908 20.915C181.305 20.575 181.588 20.3483 181.758 20.235C181.758 20.1217 181.985 19.895 182.438 19.555C182.892 19.215 183.232 19.0167 183.458 18.96L184.818 17.94C185.102 17.8267 185.583 17.6 186.263 17.26C187 16.92 187.453 16.7217 187.623 16.665C187.737 16.665 187.963 16.58 188.303 16.41C188.7 16.24 188.955 16.0983 189.068 15.985C189.352 15.985 189.692 15.9283 190.088 15.815C190.542 15.7017 190.825 15.645 190.938 15.645H193.403H195.953C196.01 15.645 196.378 15.7017 197.058 15.815C197.795 15.9283 198.362 15.985 198.758 15.985C198.928 16.0983 199.325 16.24 199.948 16.41C200.572 16.58 200.94 16.665 201.053 16.665C201.223 16.665 201.648 16.8067 202.328 17.09C203.065 17.3167 203.518 17.4583 203.688 17.515C203.802 17.5717 204.028 17.685 204.368 17.855C204.708 18.025 205.077 18.195 205.473 18.365C205.87 18.535 206.238 18.7333 206.578 18.96C206.975 19.13 207.258 19.2433 207.428 19.3C207.598 19.4133 207.853 19.5833 208.193 19.81C208.533 19.98 208.703 20.1217 208.703 20.235C208.873 20.405 209.213 20.7167 209.723 21.17C210.233 21.6233 210.517 21.935 210.573 22.105C210.687 22.2183 210.885 22.53 211.168 23.04C211.452 23.4933 211.593 23.7767 211.593 23.89V25.165V26.695C211.537 26.865 211.48 27.0633 211.423 27.29C211.367 27.46 211.282 27.63 211.168 27.8C211.112 27.9133 211.055 28.0267 210.998 28.14C210.998 28.1967 210.942 28.3383 210.828 28.565C210.772 28.7917 210.687 28.9333 210.573 28.99C210.517 29.1033 210.318 29.415 209.978 29.925C209.638 30.3783 209.412 30.6617 209.298 30.775C209.185 30.8883 208.958 31.1433 208.618 31.54C208.278 31.9367 208.052 32.1917 207.938 32.305C207.712 32.4183 207.343 32.645 206.833 32.985C206.38 33.325 206.097 33.5233 205.983 33.58C205.983 33.6367 205.87 33.75 205.643 33.92C205.417 34.0333 205.162 34.175 204.878 34.345C204.595 34.4583 204.312 34.6 204.028 34.77C203.745 34.8833 203.518 34.9683 203.348 35.025C203.235 35.025 202.98 35.0817 202.583 35.195C202.243 35.3083 201.988 35.365 201.818 35.365C201.592 35.4783 201.28 35.5917 200.883 35.705C200.487 35.8183 200.232 35.875 200.118 35.875C199.948 35.875 199.637 35.9033 199.183 35.96C198.73 36.0167 198.248 36.0733 197.738 36.13C197.228 36.13 196.747 36.1583 196.293 36.215C195.897 36.2717 195.642 36.3 195.528 36.3H193.233H190.938C190.768 36.3 190.343 36.2717 189.663 36.215C189.04 36.1583 188.36 36.13 187.623 36.13C186.887 36.0733 186.207 36.0167 185.583 35.96C184.96 35.9033 184.592 35.875 184.478 35.875H183.713H183.033C183.033 35.9883 183.09 36.2433 183.203 36.64C183.373 36.98 183.458 37.2067 183.458 37.32C183.572 37.49 183.798 37.9433 184.138 38.68C184.478 39.36 184.705 39.785 184.818 39.955C184.932 40.1817 185.102 40.465 185.328 40.805C185.612 41.145 185.753 41.3717 185.753 41.485C185.923 41.5983 186.178 41.825 186.518 42.165C186.858 42.505 187.227 42.8733 187.623 43.27C188.02 43.6667 188.388 44.035 188.728 44.375C189.125 44.715 189.408 44.9417 189.578 45.055C189.578 45.1683 189.748 45.3383 190.088 45.565C190.485 45.7917 190.768 45.9617 190.938 46.075C191.165 46.1883 191.618 46.415 192.298 46.755C192.978 47.095 193.432 47.2933 193.658 47.35C193.715 47.35 193.913 47.435 194.253 47.605C194.593 47.7183 194.82 47.775 194.933 47.775C195.217 47.8883 195.727 48.0017 196.463 48.115C197.2 48.1717 197.653 48.2567 197.823 48.37H199.098H200.543C200.713 48.2567 201.025 48.1717 201.478 48.115C201.932 48.0017 202.243 47.8883 202.413 47.775L202.838 47.35V41.91C202.895 41.74 202.952 41.5417 203.008 41.315C203.065 41.145 203.122 41.0033 203.178 40.89C203.235 40.72 203.292 40.5783 203.348 40.465C203.405 40.4083 203.433 40.3517 203.433 40.295C203.433 40.1817 203.462 40.0967 203.518 40.04C203.575 39.9267 203.632 39.785 203.688 39.615L205.983 37.32C206.097 37.2067 206.38 37.0367 206.833 36.81C207.343 36.5833 207.712 36.4133 207.938 36.3H208.278H208.703C208.817 36.4133 209.015 36.5833 209.298 36.81C209.582 37.0367 209.723 37.2067 209.723 37.32C209.78 37.3767 209.837 37.7167 209.893 38.34C210.007 38.9633 210.12 39.3883 210.233 39.615V41.145V42.76C210.12 42.9867 210.007 43.3833 209.893 43.95C209.837 44.5167 209.78 44.885 209.723 45.055C209.723 45.1117 209.667 45.2817 209.553 45.565C209.44 45.7917 209.298 46.0467 209.128 46.33C209.015 46.6133 208.873 46.8967 208.703 47.18C208.533 47.4633 208.392 47.6617 208.278 47.775C208.222 47.945 208.08 48.2283 207.853 48.625C207.627 48.965 207.485 49.135 207.428 49.135C207.315 49.2483 207.088 49.475 206.748 49.815C206.465 50.0983 206.153 50.41 205.813 50.75C205.473 51.09 205.133 51.43 204.793 51.77C204.51 52.0533 204.283 52.2517 204.113 52.365C204.113 52.4783 203.943 52.6483 203.603 52.875C203.263 53.1017 203.008 53.2717 202.838 53.385C202.725 53.4417 202.413 53.5833 201.903 53.81C201.45 54.0367 201.167 54.1783 201.053 54.235C200.827 54.235 200.402 54.3767 199.778 54.66C199.212 54.9433 198.872 55.1417 198.758 55.255C198.645 55.255 198.475 55.3117 198.248 55.425C198.078 55.595 197.937 55.68 197.823 55.68C197.823 56.02 197.795 56.615 197.738 57.465C197.738 58.315 197.71 59.2217 197.653 60.185C197.597 61.205 197.512 62.14 197.398 62.99C197.342 63.8967 197.285 64.52 197.228 64.86C197.228 65.03 197.172 65.3983 197.058 65.965C197.002 66.5317 196.917 66.9283 196.803 67.155C196.803 67.2117 196.747 67.3533 196.633 67.58C196.52 67.8067 196.463 67.9483 196.463 68.005C196.35 67.835 196.237 67.4667 196.123 66.9C196.01 66.3333 195.953 65.9367 195.953 65.71C195.953 65.37 195.925 64.8033 195.868 64.01C195.812 63.2733 195.755 62.4517 195.698 61.545C195.698 60.695 195.67 59.8733 195.613 59.08C195.557 58.3433 195.528 57.8333 195.528 57.55ZM182.523 27.885C182.637 27.885 182.892 27.9133 183.288 27.97C183.685 27.97 184.11 27.9983 184.563 28.055C185.017 28.055 185.442 28.0833 185.838 28.14C186.292 28.14 186.603 28.14 186.773 28.14L187.453 28.31C187.68 28.3667 187.878 28.4233 188.048 28.48C188.445 28.5933 189.097 28.7067 190.003 28.82C190.967 28.9333 191.59 28.99 191.873 28.99H197.993H202.413L204.113 28.48C204 28.31 203.66 27.9417 203.093 27.375C202.527 26.8083 202.102 26.4117 201.818 26.185C201.762 26.1283 201.592 26.015 201.308 25.845C201.025 25.675 200.685 25.505 200.288 25.335C199.892 25.1083 199.495 24.91 199.098 24.74C198.758 24.57 198.475 24.4567 198.248 24.4C198.192 24.4 198.022 24.3717 197.738 24.315C197.512 24.2017 197.228 24.0883 196.888 23.975C196.605 23.8617 196.322 23.7767 196.038 23.72C195.812 23.6067 195.642 23.55 195.528 23.55C195.245 23.4367 194.82 23.295 194.253 23.125C193.687 22.955 193.347 22.87 193.233 22.87H189.833H186.348C186.178 22.9833 185.867 23.1817 185.413 23.465C184.96 23.7483 184.648 23.89 184.478 23.89L184.223 24.145C184.167 24.2017 184.138 24.2583 184.138 24.315C184.138 24.3717 184.11 24.4 184.053 24.4C183.94 24.5133 183.77 24.825 183.543 25.335C183.317 25.7883 183.147 26.0717 183.033 26.185C182.977 26.2983 182.892 26.525 182.778 26.865C182.722 27.205 182.637 27.4033 182.523 27.46V27.885Z" fill="#F16414"/>
</svg>
