<svg width="16" height="16" viewBox="0 0 16 16" fill="none" xmlns="http://www.w3.org/2000/svg">
<path fill-rule="evenodd" clip-rule="evenodd" d="M5.52487 7.64687C5.52491 7.64658 5.52495 7.64629 5.525 7.646H5.524L5.52487 7.64687ZM5.52487 7.64687C5.47004 8.0309 5.50533 8.42243 5.62796 8.79047C5.75068 9.15879 5.95749 9.49347 6.23201 9.76799C6.50653 10.0425 6.8412 10.2493 7.20953 10.372C7.57785 10.4948 7.96969 10.53 8.354 10.475L5.52487 7.64687ZM7.646 5.524L10.475 8.354V8.353C10.53 7.96869 10.4948 7.57685 10.372 7.20853C10.2493 6.8402 10.0425 6.50553 9.76799 6.23101C9.49347 5.95649 9.15879 5.74968 8.79047 5.62696C8.42215 5.50424 8.03031 5.46899 7.646 5.524ZM1.646 2.354L13.646 14.354L14.354 13.646L2.354 1.646L1.646 2.354ZM9.176 11.297L10.79 12.912C9.90994 13.2965 8.9604 13.4967 8 13.5C3 13.5 0 8 0 8C0 8 0.938 6.278 2.642 4.763L4.702 6.823C4.47885 7.44716 4.43752 8.12185 4.58283 8.76858C4.72814 9.41531 5.05411 10.0075 5.52282 10.4762C5.99153 10.9449 6.58369 11.2709 7.23042 11.4162C7.87715 11.5615 8.55184 11.5202 9.176 11.297ZM8 2.5C7.03959 2.50331 6.09005 2.70342 5.21 3.088V3.089L6.823 4.702C7.44716 4.47885 8.12185 4.43752 8.76858 4.58283C9.41531 4.72814 10.0075 5.05411 10.4762 5.52282C10.9449 5.99153 11.2709 6.58369 11.4162 7.23042C11.5615 7.87715 11.5202 8.55184 11.297 9.176L13.359 11.238C15.061 9.721 16 8 16 8C16 8 13 2.5 8 2.5Z" fill="#27354F"/>
</svg>
