<svg width="100" height="100" viewBox="0 0 100 100" fill="none" xmlns="http://www.w3.org/2000/svg">
<rect x="1" y="1" width="98" height="98" fill="white"/>
<path d="M31.5777 32H27.5457L28.2117 19.076H29.9037L29.3097 30.434H31.6497L31.5777 32ZM34.5175 32C33.1495 32 32.5015 31.268 32.5735 29.804L33.0235 21.29C33.0955 19.814 33.8095 19.076 35.1655 19.076H36.7855C38.1415 19.076 38.7835 19.814 38.7115 21.29L38.2615 29.804C38.1895 31.268 37.4695 32 36.1015 32H34.5175ZM34.9855 30.434H35.8495C36.3055 30.434 36.5455 30.182 36.5695 29.678L37.0195 21.398C37.0435 20.894 36.8035 20.642 36.2995 20.642H35.4895C34.9975 20.642 34.7395 20.894 34.7155 21.398L34.2655 29.678C34.2415 30.182 34.4815 30.434 34.9855 30.434ZM42.4835 27.266L42.5735 25.7H45.1475L44.8235 32H41.5115C40.2035 32 39.5855 31.274 39.6575 29.822L40.1075 21.29C40.1795 19.814 40.8695 19.076 42.1775 19.076H43.3295C44.7695 19.076 45.4535 19.826 45.3815 21.326L45.3095 22.73H43.6175L43.6715 21.578C43.7075 20.954 43.4855 20.642 43.0055 20.642H42.5735C42.0815 20.642 41.8175 20.954 41.7815 21.578L41.3675 29.498C41.3315 30.122 41.5595 30.434 42.0515 30.434H43.2035L43.3655 27.266H42.4835ZM48.1757 32C46.8077 32 46.1597 31.268 46.2317 29.804L46.6817 21.29C46.7537 19.814 47.4677 19.076 48.8237 19.076H50.4437C51.7997 19.076 52.4417 19.814 52.3697 21.29L51.9197 29.804C51.8477 31.268 51.1277 32 49.7597 32H48.1757ZM48.6437 30.434H49.5077C49.9637 30.434 50.2037 30.182 50.2277 29.678L50.6777 21.398C50.7017 20.894 50.4617 20.642 49.9577 20.642H49.1477C48.6557 20.642 48.3977 20.894 48.3737 21.398L47.9237 29.678C47.8997 30.182 48.1397 30.434 48.6437 30.434ZM56.1277 32L56.7937 19.076H59.7457C61.3297 19.076 62.0797 19.904 61.9957 21.56L61.5457 30.128C61.4857 31.376 60.7777 32 59.4217 32H56.1277ZM57.8917 30.434H59.1697C59.6137 30.434 59.8477 30.242 59.8717 29.858L60.3037 21.578C60.3397 20.954 60.1057 20.642 59.6017 20.642H58.4137L57.8917 30.434ZM62.948 32L63.614 19.076H67.826L67.754 20.642H65.234L65.018 24.566H67.25L67.178 26.132H64.946L64.712 30.434H67.232L67.16 32H62.948ZM72.3941 32H68.3621L69.0281 19.076H70.7201L70.1261 30.434H72.4661L72.3941 32ZM32.0984 52L32.7644 39.076H36.9764L36.9044 40.642H34.3844L34.1684 44.566H36.4004L36.3284 46.132H34.0964L33.8624 50.434H36.3824L36.3104 52H32.0984ZM44.0645 52H39.4565C38.1005 52 37.4585 51.274 37.5305 49.822L37.9805 41.29C38.0525 39.814 38.7605 39.076 40.1045 39.076H41.7425C43.0865 39.076 43.7225 39.814 43.6505 41.29L43.1645 50.434H44.1365L44.0645 52ZM41.4725 50.434L41.9585 41.398C41.9825 40.894 41.7425 40.642 41.2385 40.642H40.4465C39.9545 40.642 39.6965 40.894 39.6725 41.398L39.2225 49.678C39.1985 50.182 39.4385 50.434 39.9425 50.434H41.4725ZM51.0517 39.076L50.5117 49.552C50.4277 51.184 49.7017 52 48.3337 52H46.9117C45.5557 52 44.9197 51.178 45.0037 49.534L45.5437 39.076H47.2357L46.6957 49.588C46.6597 50.152 46.8877 50.434 47.3797 50.434H48.0817C48.5377 50.434 48.7837 50.152 48.8197 49.588L49.3597 39.076H51.0517ZM51.9617 52L52.6277 39.076H54.3197L53.6537 52H51.9617ZM55.8973 39.076H58.9753C60.3433 39.076 60.9913 39.814 60.9193 41.29L60.7213 45.124C60.6373 46.588 59.9173 47.32 58.5613 47.32H57.1572L56.9233 52H55.2313L55.8973 39.076ZM57.2473 45.754H58.3273C58.7713 45.754 59.0053 45.502 59.0293 44.998L59.2273 41.398C59.2513 40.894 59.0113 40.642 58.5073 40.642H57.5173L57.2473 45.754ZM63.6796 52C62.3116 52 61.6636 51.268 61.7356 49.804L62.1856 41.29C62.2576 39.814 62.9716 39.076 64.3276 39.076H65.9476C67.3036 39.076 67.9456 39.814 67.8736 41.29L67.4236 49.804C67.3516 51.268 66.6316 52 65.2636 52H63.6796ZM64.1476 50.434H65.0116C65.4676 50.434 65.7076 50.182 65.7316 49.678L66.1816 41.398C66.2056 40.894 65.9656 40.642 65.4616 40.642H64.6516C64.1596 40.642 63.9016 40.894 63.8776 41.398L63.4276 49.678C63.4036 50.182 63.6436 50.434 64.1476 50.434Z" fill="#969899"/>
<path d="M49 76V67.85L46.4 70.45L45 69L50 64L55 69L53.6 70.45L51 67.85V76H49ZM44 80C43.45 80 42.9793 79.8043 42.588 79.413C42.196 79.021 42 78.55 42 78V75H44V78H56V75H58V78C58 78.55 57.8043 79.021 57.413 79.413C57.021 79.8043 56.55 80 56 80H44Z" fill="#969899"/>
<rect x="1" y="1" width="98" height="98" stroke="#969899" stroke-width="2" stroke-dasharray="8 8"/>
</svg>
