<svg width="28" height="28" viewBox="0 0 28 28" fill="none" xmlns="http://www.w3.org/2000/svg">
<path d="M12.6665 20.6667H15.3332V12.6667H12.6665V20.6667ZM13.9998 10C14.3776 10 14.6945 9.872 14.9505 9.616C15.2056 9.36089 15.3332 9.04445 15.3332 8.66667C15.3332 8.28889 15.2056 7.972 14.9505 7.716C14.6945 7.46089 14.3776 7.33334 13.9998 7.33334C13.6221 7.33334 13.3056 7.46089 13.0505 7.716C12.7945 7.972 12.6665 8.28889 12.6665 8.66667C12.6665 9.04445 12.7945 9.36089 13.0505 9.616C13.3056 9.872 13.6221 10 13.9998 10ZM13.9998 27.3333C12.1554 27.3333 10.4221 26.9831 8.79984 26.2827C7.17762 25.5831 5.7665 24.6333 4.5665 23.4333C3.3665 22.2333 2.41673 20.8222 1.71717 19.2C1.01673 17.5778 0.666504 15.8444 0.666504 14C0.666504 12.1556 1.01673 10.4222 1.71717 8.8C2.41673 7.17778 3.3665 5.76667 4.5665 4.56667C5.7665 3.36667 7.17762 2.41645 8.79984 1.716C10.4221 1.01645 12.1554 0.666672 13.9998 0.666672C15.8443 0.666672 17.5776 1.01645 19.1998 1.716C20.8221 2.41645 22.2332 3.36667 23.4332 4.56667C24.6332 5.76667 25.5829 7.17778 26.2825 8.8C26.9829 10.4222 27.3332 12.1556 27.3332 14C27.3332 15.8444 26.9829 17.5778 26.2825 19.2C25.5829 20.8222 24.6332 22.2333 23.4332 23.4333C22.2332 24.6333 20.8221 25.5831 19.1998 26.2827C17.5776 26.9831 15.8443 27.3333 13.9998 27.3333Z" fill="#27354F"/>
</svg>
