<svg width="40" height="40" viewBox="0 0 40 40" fill="none" xmlns="http://www.w3.org/2000/svg">
<path fill-rule="evenodd" clip-rule="evenodd" d="M13.8122 19.1172C13.8123 19.1164 13.8124 19.1157 13.8125 19.115H13.81L13.8122 19.1172ZM13.8122 19.1172C13.6751 20.0773 13.7633 21.0561 14.0699 21.9762C14.3767 22.897 14.8937 23.7337 15.58 24.42C16.2663 25.1063 17.103 25.6233 18.0238 25.9301C18.9446 26.2369 19.9242 26.325 20.885 26.1875L13.8122 19.1172ZM19.115 13.81L26.1875 20.885V20.8825C26.325 19.9217 26.2369 18.9421 25.9301 18.0213C25.6233 17.1005 25.1063 16.2638 24.42 15.5775C23.7337 14.8912 22.897 14.3742 21.9762 14.0674C21.0554 13.7606 20.0758 13.6725 19.115 13.81ZM4.11499 5.88499L34.115 35.885L35.885 34.115L5.88499 4.11499L4.11499 5.88499ZM22.94 28.2425L26.975 32.28C24.7748 33.2414 22.401 33.7417 20 33.75C7.5 33.75 0 20 0 20C0 20 2.345 15.695 6.605 11.9075L11.755 17.0575C11.1971 18.6179 11.0938 20.3046 11.4571 21.9214C11.8204 23.5383 12.6353 25.0187 13.807 26.1905C14.9788 27.3622 16.4592 28.1771 18.076 28.5404C19.6929 28.9037 21.3796 28.8004 22.94 28.2425ZM20 6.25C17.599 6.25827 15.2251 6.75856 13.025 7.72V7.7225L17.0575 11.755C18.6179 11.1971 20.3046 11.0938 21.9214 11.4571C23.5383 11.8204 25.0187 12.6353 26.1905 13.807C27.3622 14.9788 28.1771 16.4592 28.5404 18.076C28.9037 19.6929 28.8004 21.3796 28.2425 22.94L33.3975 28.095C37.6525 24.3025 40 20 40 20C40 20 32.5 6.25 20 6.25Z" fill="#27354F"/>
</svg>
