<svg width="40" height="40" viewBox="0 0 40 40" fill="none" xmlns="http://www.w3.org/2000/svg">
<path d="M6.74835 9.66998L13.09 15.25L18.74 8.29331C18.8982 8.09883 19.0983 7.94255 19.3253 7.8361C19.5522 7.72965 19.8003 7.67578 20.051 7.6785C20.3017 7.68123 20.5486 7.74047 20.7732 7.85183C20.9978 7.96318 21.1944 8.12377 21.3484 8.32165L26.74 15.2483L33.2867 9.58831C33.5438 9.3665 33.8625 9.2285 34.2002 9.19278C34.5378 9.15707 34.8784 9.22535 35.1762 9.38848C35.474 9.55161 35.7148 9.8018 35.8665 10.1056C36.0182 10.4094 36.0735 10.7522 36.025 11.0883L33.525 28.3333H6.53668L3.99835 11.1666C3.94793 10.8287 4.00259 10.4834 4.15493 10.1776C4.30728 9.87176 4.54994 9.62013 4.85005 9.45679C5.15016 9.29346 5.49323 9.22631 5.83277 9.26444C6.17232 9.30258 6.49194 9.44415 6.74835 9.66998ZM6.66668 30H33.3334V31.6666C33.3334 32.1087 33.1578 32.5326 32.8452 32.8452C32.5326 33.1577 32.1087 33.3333 31.6667 33.3333H8.33335C7.89132 33.3333 7.4674 33.1577 7.15484 32.8452C6.84228 32.5326 6.66668 32.1087 6.66668 31.6666V30Z" fill="#F16414"/>
</svg>
