<svg width="40" height="40" viewBox="0 0 40 40" fill="none" xmlns="http://www.w3.org/2000/svg">
<path fill-rule="evenodd" clip-rule="evenodd" d="M20 6.25C7.5 6.25 0 20 0 20C0 20 7.5 33.75 20 33.75C32.5 33.75 40 20 40 20C40 20 32.5 6.25 20 6.25ZM26.1872 26.1872C24.5462 27.8281 22.3206 28.75 20 28.75C17.6794 28.75 15.4538 27.8281 13.8128 26.1872C12.1719 24.5462 11.25 22.3206 11.25 20C11.25 17.6794 12.1719 15.4538 13.8128 13.8128C15.4538 12.1719 17.6794 11.25 20 11.25C22.3206 11.25 24.5462 12.1719 26.1872 13.8128C27.8281 15.4538 28.75 17.6794 28.75 20C28.75 22.3206 27.8281 24.5462 26.1872 26.1872ZM24.4194 24.4194C25.5915 23.2473 26.25 21.6576 26.25 20C26.25 18.3424 25.5915 16.7527 24.4194 15.5806C23.2473 14.4085 21.6576 13.75 20 13.75C18.3424 13.75 16.7527 14.4085 15.5806 15.5806C14.4085 16.7527 13.75 18.3424 13.75 20C13.75 21.6576 14.4085 23.2473 15.5806 24.4194C16.7527 25.5915 18.3424 26.25 20 26.25C21.6576 26.25 23.2473 25.5915 24.4194 24.4194Z" fill="#27354F"/>
</svg>
