<svg width="40" height="40" viewBox="0 0 40 40" fill="none" xmlns="http://www.w3.org/2000/svg">
<path d="M18.3333 28.3333H21.6667V18.3333H18.3333V28.3333ZM20 15C20.4722 15 20.8683 14.84 21.1883 14.52C21.5072 14.2011 21.6667 13.8055 21.6667 13.3333C21.6667 12.8611 21.5072 12.465 21.1883 12.145C20.8683 11.8261 20.4722 11.6666 20 11.6666C19.5278 11.6666 19.1322 11.8261 18.8133 12.145C18.4933 12.465 18.3333 12.8611 18.3333 13.3333C18.3333 13.8055 18.4933 14.2011 18.8133 14.52C19.1322 14.84 19.5278 15 20 15ZM20 36.6666C17.6944 36.6666 15.5278 36.2289 13.5 35.3533C11.4722 34.4789 9.70834 33.2916 8.20834 31.7916C6.70834 30.2916 5.52111 28.5278 4.64667 26.5C3.77111 24.4722 3.33334 22.3055 3.33334 20C3.33334 17.6944 3.77111 15.5278 4.64667 13.5C5.52111 11.4722 6.70834 9.70831 8.20834 8.20831C9.70834 6.70831 11.4722 5.52053 13.5 4.64498C15.5278 3.77054 17.6944 3.33331 20 3.33331C22.3056 3.33331 24.4722 3.77054 26.5 4.64498C28.5278 5.52053 30.2917 6.70831 31.7917 8.20831C33.2917 9.70831 34.4789 11.4722 35.3533 13.5C36.2289 15.5278 36.6667 17.6944 36.6667 20C36.6667 22.3055 36.2289 24.4722 35.3533 26.5C34.4789 28.5278 33.2917 30.2916 31.7917 31.7916C30.2917 33.2916 28.5278 34.4789 26.5 35.3533C24.4722 36.2289 22.3056 36.6666 20 36.6666Z" fill="#27354F"/>
</svg>
