<svg width="20" height="16" viewBox="0 0 20 16" fill="none" xmlns="http://www.w3.org/2000/svg">
<path d="M2.04889 1.80237L5.85389 5.15037L9.24389 0.976366C9.33881 0.859676 9.45884 0.765905 9.59503 0.702037C9.73123 0.638168 9.88007 0.605847 10.0305 0.607481C10.1809 0.609115 10.329 0.644661 10.4638 0.711474C10.5986 0.778286 10.7165 0.874642 10.8089 0.993366L14.0439 5.14937L17.9719 1.75337C18.1261 1.62028 18.3174 1.53748 18.52 1.51605C18.7226 1.49462 18.9269 1.53559 19.1056 1.63346C19.2843 1.73134 19.4288 1.88146 19.5198 2.06373C19.6108 2.246 19.644 2.45172 19.6149 2.65337L18.1149 13.0004H1.92189L0.398889 2.70037C0.368636 2.4976 0.401433 2.29044 0.492839 2.10694C0.584244 1.92343 0.729841 1.77246 0.909909 1.67445C1.08998 1.57645 1.29581 1.53617 1.49954 1.55904C1.70327 1.58192 1.89504 1.66687 2.04889 1.80237ZM1.99989 14.0004H17.9999V15.0004C17.9999 15.2656 17.8945 15.5199 17.707 15.7075C17.5195 15.895 17.2651 16.0004 16.9999 16.0004H2.99989C2.73467 16.0004 2.48032 15.895 2.29278 15.7075C2.10525 15.5199 1.99989 15.2656 1.99989 15.0004V14.0004Z" fill="#F16414"/>
</svg>
