<svg width="40" height="40" viewBox="0 0 40 40" fill="none" xmlns="http://www.w3.org/2000/svg">
<path fill-rule="evenodd" clip-rule="evenodd" d="M9.79337 0.600828C8.78427 1.39448 7.85544 3.55779 7.32634 6.34704C6.97461 8.20055 6.89655 11.0154 6.89655 21.8234V35.0345H10.8965H14.8965V22.1051C14.8965 7.95365 14.7219 5.8 13.3228 2.68221C12.6268 1.13131 11.6036 0 10.8965 0C10.7098 0 10.2135 0.270345 9.79337 0.600828ZM19.2623 0.422621C18.3277 0.930207 17.3164 3.06262 16.6505 5.93103C16.1884 7.92055 16.1379 9.45545 16.1379 21.5172V34.8966H20.1379H24.1379V21.5172C24.1379 9.45545 24.0874 7.92055 23.6254 5.93103C22.9368 2.96524 21.9498 0.922759 20.9572 0.40938C20.0226 -0.0736549 20.1788 -0.0750341 19.2623 0.422621ZM28.3575 0.536827C27.3702 1.31338 26.2955 3.92276 25.8052 6.73324C25.4621 8.70124 25.3793 11.6872 25.3793 22.1051V35.0345H29.3793H33.3793V21.8234C33.3793 7.57407 33.2326 5.69324 31.883 2.64138C31.2684 1.25186 30.0819 0 29.3793 0C29.1926 0 28.7327 0.241655 28.3575 0.536827ZM6.89655 38.2069V40H10.8965H14.8965V38.2069V36.4138H10.8965H6.89655V38.2069ZM16 38.2069V40H20.1379H24.2759V38.2069V36.4138H20.1379H16V38.2069ZM25.3793 38.2069V40H29.3793H33.3793V38.2069V36.4138H29.3793H25.3793V38.2069Z" fill="#27354F"/>
</svg>
