<svg width="40" height="40" viewBox="0 0 40 40" fill="none" xmlns="http://www.w3.org/2000/svg">
<path fill-rule="evenodd" clip-rule="evenodd" d="M16.9265 0.92479C16.3523 1.12943 15.5202 1.64117 15.0777 2.06181C13.5373 3.52594 13.4 4.05633 13.2884 8.97667L13.1854 13.5048L9.0901 13.5064C4.55688 13.508 3.39309 13.7221 2.12631 14.788C0.75518 15.9415 0.275879 17.3251 0.275879 20.1279C0.275879 22.9307 0.75518 24.3143 2.12631 25.4678C3.39309 26.5337 4.55688 26.7478 9.0901 26.7495L13.1854 26.7511L13.2884 31.2792C13.4025 36.3022 13.5492 36.8305 15.2464 38.3205C16.4123 39.3443 17.6978 39.7241 19.9983 39.7241C22.2989 39.7241 23.5843 39.3443 24.7502 38.3205C26.4474 36.8305 26.5942 36.3022 26.7083 31.2792L26.8113 26.7511L30.9065 26.7495C35.4398 26.7478 36.6035 26.5337 37.8703 25.4678C39.2415 24.3143 39.7208 22.9307 39.7208 20.1279C39.7208 17.3251 39.2415 15.9415 37.8703 14.788C36.6035 13.7221 35.4398 13.508 30.9065 13.5064L26.8113 13.5048L26.7083 8.97667C26.5942 3.9536 26.4474 3.42537 24.7502 1.9353C24.2263 1.47519 23.3383 0.971287 22.7765 0.815305C21.3532 0.420078 18.1755 0.479551 16.9265 0.92479Z" fill="#27354F"/>
</svg>
