<svg width="40" height="40" viewBox="0 0 40 40" fill="none" xmlns="http://www.w3.org/2000/svg">
<path fill-rule="evenodd" clip-rule="evenodd" d="M14.2069 0.331405C9.35723 1.01251 5.28579 2.08699 4.22868 2.96423C3.93599 3.20699 3.86206 5.28809 3.86206 13.2657V23.263L6.08137 26.6172C9.47227 31.7419 15.2452 37.4056 19.064 39.354C20.1354 39.9005 20.1404 39.9005 21.2119 39.354C25.0306 37.4056 30.8036 31.7419 34.1945 26.6172L36.4138 23.263V13.2657C36.4138 5.59375 36.3335 3.20175 36.0684 2.98161C35.3837 2.41361 32.6386 1.48313 30.069 0.948233C28.0276 0.52313 26.0761 0.381888 21.2414 0.308785C17.8276 0.257198 14.6621 0.267405 14.2069 0.331405Z" fill="#27354F"/>
</svg>
