<svg width="20" height="24" viewBox="0 0 20 24" fill="none" xmlns="http://www.w3.org/2000/svg">
<path fill-rule="evenodd" clip-rule="evenodd" d="M6.52403 0.198355C3.61424 0.607017 1.17137 1.25171 0.537111 1.77805C0.361498 1.92371 0.317139 3.17237 0.317139 7.95896V13.9573L1.64872 15.9698C3.68326 19.0446 7.14704 22.4429 9.4383 23.6119C10.0812 23.9398 10.0841 23.9398 10.727 23.6119C13.0183 22.4429 16.482 19.0446 18.5166 15.9698L19.8482 13.9573V7.95896C19.8482 3.35576 19.8 1.92056 19.6409 1.78848C19.2301 1.44768 17.5831 0.889389 16.0413 0.568452C14.8164 0.313389 13.6456 0.228645 10.7447 0.184782C8.69645 0.153831 6.79714 0.159955 6.52403 0.198355Z" fill="#27354F"/>
</svg>
